<mxfile host="app.diagrams.net" modified="2023-11-21T10:04:09.289Z" agent="Mozilla/5.0 (Windows NT 10.0; Win64; x64) AppleWebKit/537.36 (KHTML, like Gecko) Chrome/119.0.0.0 Safari/537.36" etag="T4g0tMAztf6RZr4YxEmE" version="22.1.3" type="device">
  <diagram name="Strona-1" id="7_eV8aSRWbqJh-5246uc">
    <mxGraphModel dx="714" dy="789" grid="1" gridSize="10" guides="1" tooltips="1" connect="1" arrows="1" fold="1" page="1" pageScale="1" pageWidth="827" pageHeight="1169" math="0" shadow="0">
      <root>
        <mxCell id="0" />
        <mxCell id="1" parent="0" />
        <mxCell id="jUSXyHIeNcQYj-WMRKPu-1" value="File" style="swimlane;fontStyle=1;align=center;verticalAlign=top;childLayout=stackLayout;horizontal=1;startSize=26;horizontalStack=0;resizeParent=1;resizeParentMax=0;resizeLast=0;collapsible=1;marginBottom=0;whiteSpace=wrap;html=1;" vertex="1" parent="1">
          <mxGeometry x="570" y="70" width="180" height="270" as="geometry" />
        </mxCell>
        <mxCell id="jUSXyHIeNcQYj-WMRKPu-2" value="-name: String&lt;br&gt;-size: double&lt;br&gt;-date: String&lt;br&gt;-rozsz: String&lt;br&gt;-locaization: String&lt;br&gt;-modificationDate: date&lt;br&gt;-attributes: String" style="text;strokeColor=none;fillColor=none;align=left;verticalAlign=top;spacingLeft=4;spacingRight=4;overflow=hidden;rotatable=0;points=[[0,0.5],[1,0.5]];portConstraint=eastwest;whiteSpace=wrap;html=1;" vertex="1" parent="jUSXyHIeNcQYj-WMRKPu-1">
          <mxGeometry y="26" width="180" height="104" as="geometry" />
        </mxCell>
        <mxCell id="jUSXyHIeNcQYj-WMRKPu-3" value="" style="line;strokeWidth=1;fillColor=none;align=left;verticalAlign=middle;spacingTop=-1;spacingLeft=3;spacingRight=3;rotatable=0;labelPosition=right;points=[];portConstraint=eastwest;strokeColor=inherit;" vertex="1" parent="jUSXyHIeNcQYj-WMRKPu-1">
          <mxGeometry y="130" width="180" height="8" as="geometry" />
        </mxCell>
        <mxCell id="jUSXyHIeNcQYj-WMRKPu-4" value="+open()&lt;br&gt;+close()&lt;br&gt;+save()&lt;br&gt;-print()&lt;br&gt;+delete()&lt;br&gt;+edit()&lt;br&gt;+changeName(String): void&lt;br&gt;+copy()" style="text;strokeColor=none;fillColor=none;align=left;verticalAlign=top;spacingLeft=4;spacingRight=4;overflow=hidden;rotatable=0;points=[[0,0.5],[1,0.5]];portConstraint=eastwest;whiteSpace=wrap;html=1;" vertex="1" parent="jUSXyHIeNcQYj-WMRKPu-1">
          <mxGeometry y="138" width="180" height="132" as="geometry" />
        </mxCell>
        <mxCell id="jUSXyHIeNcQYj-WMRKPu-5" value="Account" style="swimlane;fontStyle=1;align=center;verticalAlign=top;childLayout=stackLayout;horizontal=1;startSize=26;horizontalStack=0;resizeParent=1;resizeParentMax=0;resizeLast=0;collapsible=1;marginBottom=0;whiteSpace=wrap;html=1;" vertex="1" parent="1">
          <mxGeometry x="70" y="70" width="160" height="260" as="geometry" />
        </mxCell>
        <mxCell id="jUSXyHIeNcQYj-WMRKPu-6" value="-number: String&lt;br&gt;-acName: String&lt;br&gt;-owner: String&lt;br&gt;-balance: double&lt;br&gt;-type: String&lt;br&gt;-isActive: bool" style="text;strokeColor=none;fillColor=none;align=left;verticalAlign=top;spacingLeft=4;spacingRight=4;overflow=hidden;rotatable=0;points=[[0,0.5],[1,0.5]];portConstraint=eastwest;whiteSpace=wrap;html=1;" vertex="1" parent="jUSXyHIeNcQYj-WMRKPu-5">
          <mxGeometry y="26" width="160" height="94" as="geometry" />
        </mxCell>
        <mxCell id="jUSXyHIeNcQYj-WMRKPu-7" value="" style="line;strokeWidth=1;fillColor=none;align=left;verticalAlign=middle;spacingTop=-1;spacingLeft=3;spacingRight=3;rotatable=0;labelPosition=right;points=[];portConstraint=eastwest;strokeColor=inherit;" vertex="1" parent="jUSXyHIeNcQYj-WMRKPu-5">
          <mxGeometry y="120" width="160" height="8" as="geometry" />
        </mxCell>
        <mxCell id="jUSXyHIeNcQYj-WMRKPu-8" value="+login(double): void&lt;br&gt;+logout(double): void&lt;br&gt;+deposit(double): void&lt;br&gt;+withdraw(double): void&lt;br&gt;+checkBalance(): double&lt;br&gt;+sentTransfer(String, double): void&lt;br&gt;+deactivate(): void" style="text;strokeColor=none;fillColor=none;align=left;verticalAlign=top;spacingLeft=4;spacingRight=4;overflow=hidden;rotatable=0;points=[[0,0.5],[1,0.5]];portConstraint=eastwest;whiteSpace=wrap;html=1;" vertex="1" parent="jUSXyHIeNcQYj-WMRKPu-5">
          <mxGeometry y="128" width="160" height="132" as="geometry" />
        </mxCell>
        <mxCell id="jUSXyHIeNcQYj-WMRKPu-9" value="Student" style="swimlane;fontStyle=1;align=center;verticalAlign=top;childLayout=stackLayout;horizontal=1;startSize=26;horizontalStack=0;resizeParent=1;resizeParentMax=0;resizeLast=0;collapsible=1;marginBottom=0;whiteSpace=wrap;html=1;" vertex="1" parent="1">
          <mxGeometry x="320" y="70" width="160" height="230" as="geometry" />
        </mxCell>
        <mxCell id="jUSXyHIeNcQYj-WMRKPu-10" value="- id: String&lt;br&gt;- name: tring&lt;br&gt;- surname: String&lt;br&gt;- age: int&lt;br&gt;- fstudies: String&lt;br&gt;- year: int&lt;br&gt;- semestr: int&lt;br&gt;- group: String" style="text;strokeColor=none;fillColor=none;align=left;verticalAlign=top;spacingLeft=4;spacingRight=4;overflow=hidden;rotatable=0;points=[[0,0.5],[1,0.5]];portConstraint=eastwest;whiteSpace=wrap;html=1;" vertex="1" parent="jUSXyHIeNcQYj-WMRKPu-9">
          <mxGeometry y="26" width="160" height="124" as="geometry" />
        </mxCell>
        <mxCell id="jUSXyHIeNcQYj-WMRKPu-11" value="" style="line;strokeWidth=1;fillColor=none;align=left;verticalAlign=middle;spacingTop=-1;spacingLeft=3;spacingRight=3;rotatable=0;labelPosition=right;points=[];portConstraint=eastwest;strokeColor=inherit;" vertex="1" parent="jUSXyHIeNcQYj-WMRKPu-9">
          <mxGeometry y="150" width="160" height="8" as="geometry" />
        </mxCell>
        <mxCell id="jUSXyHIeNcQYj-WMRKPu-12" value="+study()&lt;br&gt;+attendLectures()&lt;br&gt;+ writeATests(String): void&lt;br&gt;+ dropOut()" style="text;strokeColor=none;fillColor=none;align=left;verticalAlign=top;spacingLeft=4;spacingRight=4;overflow=hidden;rotatable=0;points=[[0,0.5],[1,0.5]];portConstraint=eastwest;whiteSpace=wrap;html=1;" vertex="1" parent="jUSXyHIeNcQYj-WMRKPu-9">
          <mxGeometry y="158" width="160" height="72" as="geometry" />
        </mxCell>
      </root>
    </mxGraphModel>
  </diagram>
</mxfile>
